# Made using Asset Forge (www.assetforge.io) version 1.3 

mtllib materials.mtl 

g debris_bricks_0

v 0.4221949 0.1 0.1704179
v 0.277794 0.1 0.1317258
v 0.3691315 0.1 0.3684534
v 0.2247306 0.1 0.3297613
v 0.4221949 0.2153246 0.1704179
v 0.3691315 0.2153246 0.3684534
v 0.277794 0.2153246 0.1317258
v 0.2247306 0.2153246 0.3297613
v -0.1490921 0.255844 -0.01470484
v -0.2256316 0.255844 -0.01069358
v 0.05104468 0.255844 -0.02519357
v 0.05104468 0.411688 -0.02519357
v -0.2256316 0.411688 -0.01069358
v -0.2362045 0.255844 -0.2124367
v -0.2362045 0.411688 -0.2124367
v -0.2268997 0.255844 -0.03488931
v 0.04047177 0.411688 -0.2269367
v -0.1974983 0.255844 -0.2144652
v -0.05314533 0.255844 -0.2220304
v 0.04047177 0.255844 -0.2269367
v 0.04536588 0.255844 -0.1335515
v 0.04768389 0.255844 -0.08932135
v -0.04688749 0.255844 0.1712839
v -0.199349 0.255844 0.1096854
v -0.05340094 0.255844 0.2124082
v -0.2551436 0.255844 0.194758
v -0.2305639 0.255844 0.03956764
v -0.1746008 0.255844 0.04843132
v -0.0310311 0.411688 0.07117053
v -0.0310311 0.255844 0.07117053
v -0.07437221 0.411688 0.3448155
v -0.07437221 0.255844 0.3448155
v -0.2305639 0.411688 0.03956764
v -0.273905 0.411688 0.3132126
v -0.273905 0.255844 0.3132126
v -0.2654603 0.255844 0.1938554
v -0.2830675 0.255844 0.3951066
v -0.007065821 0.255844 0.4192536
v 0.01054138 0.255844 0.2180024
v 0.01054138 0.1 0.2180024
v -0.007065821 0.1 0.4192536
v -0.2654603 0.1 0.1938554
v -0.2830675 0.1 0.3951066
v 0.1342017 0.1 -0.08478837
v 0.263668 0.1 -0.1595358
v 0.1342017 0.2153246 -0.08478837
v 0.263668 0.2153246 -0.1595358
v 0.3661787 0.2153246 0.01801801
v 0.3661787 0.1 0.01801801
v 0.2367124 0.1 0.09276541
v 0.2367124 0.2153246 0.09276541
v 0.09174762 0.255844 -0.07151844
v -0.01203937 0.255844 0.1853634
v -0.09556206 0.1 -0.1471965
v 0.09174762 0.1 -0.07151844
v -0.09556206 0.255844 -0.1471965
v -0.01203937 0.1 0.1853634
v -0.199349 0.1 0.1096854
v 0.2362579 0.1 -0.3244435
v 0.04034975 0.1 -0.1285354
v 0.2362579 0.255844 -0.3244435
v 0.04034975 0.255844 -0.1285354
v 0.09340822 0.255844 -0.4672932
v -0.1025 0.255844 -0.2713851
v 0.09340822 0.1 -0.4672932
v -0.1025 0.1 -0.2713851
v -0.2262812 0.255844 -0.3218845
v -0.4214175 0.255844 -0.2695979
v -0.3497102 0.255844 -0.001982327
v -0.1545738 0.1 -0.05426895
v -0.3497102 0.1 -0.001982327
v -0.1545738 0.255844 -0.05426895
v -0.2262812 0.1 -0.3218845
v -0.4214175 0.1 -0.2695979
vn 0 -1 0
vn 0.9659258 0 0.258819
vn 0 1 0
vn -0.9659258 0 -0.2588191
vn -0.2588191 0 0.9659257
vn 0.258819 0 -0.9659258
vn 0.05233596 0 0.9986296
vn -0.9986296 0 0.05233593
vn -0.9986296 0 0.05233592
vn -0.9986296 0 0.05233591
vn -0.9986296 0 0.05233591
vn -0.9986296 0 0.0523359
vn -0.05233595 0 -0.9986296
vn 0.9986296 0 -0.05233595
vn 0.9986296 0 -0.05233594
vn 0.9986296 0 -0.05233594
vn 0.9876884 0 0.1564345
vn 0.9876884 0 0.1564345
vn 0.9876884 0 0.1564344
vn 0.9876884 0 0.1564344
vn 0.9876884 0 0.1564345
vn -0.1564345 0 0.9876884
vn -0.9876884 0 -0.1564344
vn -0.9876884 0 -0.1564344
vn -0.9876884 0 -0.1564345
vn -0.9876884 0 -0.1564345
vn 0.1564345 0 -0.9876884
vn 0.9961947 0 0.08715575
vn -0.9961947 0 -0.08715565
vn -0.08715567 0 0.9961947
vn 0.08715571 0 -0.9961947
vn 0.0871555 0 -0.9961947
vn 0.08715524 0 -0.9961947
vn 0.08715526 0 -0.9961947
vn 0.08715577 0 -0.9961947
vn 0.0871558 0 -0.9961947
vn -0.5000001 0 -0.8660254
vn 0.8660254 0 -0.5
vn 0.5 0 0.8660254
vn -0.8660254 0 0.5
vn 0.3746065 0 -0.9271839
vn -0.3746065 0 0.9271839
vn -0.9271839 0 -0.3746065
vn -0.9271839 0 -0.3746065
vn 0.9271839 0 0.3746065
vn 0.7071068 0 0.7071068
vn 0.7071066 0 -0.7071069
vn -0.7071068 0 -0.7071068
vn -0.7071068 0 0.7071068
vn -0.7071068 0 0.7071067
vn -0.7071068 0 0.7071067
vn -0.7071068 0 0.7071068
vn 0.258819 0 0.9659258
vn 0.9659258 0 -0.2588191
vn 0.9659258 0 -0.258819
vn -0.258819 0 -0.9659258
vn -0.9659258 0 0.2588189
vt -0.4221949 -0.1704179
vt -0.277794 -0.1317258
vt -0.3691315 -0.3684534
vt -0.2247306 -0.3297613
vt -0.1704179 0.2153246
vt -0.1704179 0.1
vt -0.3684534 0.2153246
vt -0.3684534 0.1
vt -0.4221949 0.1704179
vt -0.3691315 0.3684534
vt -0.277794 0.1317258
vt -0.2247306 0.3297613
vt 0.1317258 0.1
vt 0.1317258 0.2153246
vt 0.3297613 0.1
vt 0.3297613 0.2153246
vt 0.3691315 0.1
vt 0.2247306 0.1
vt 0.3691315 0.2153246
vt 0.2247306 0.2153246
vt -0.277794 0.1
vt -0.4221949 0.1
vt -0.277794 0.2153246
vt -0.4221949 0.2153246
vt -0.1490921 0.255844
vt -0.2256316 0.255844
vt 0.05104468 0.255844
vt 0.05104468 0.411688
vt -0.2256316 0.411688
vt -0.2124367 0.255844
vt -0.2124367 0.411688
vt -0.03488931 0.255844
vt -0.01069358 0.411688
vt -0.01069358 0.255844
vt -0.05104468 -0.02519357
vt 0.2256316 -0.01069358
vt -0.04047177 -0.2269367
vt 0.2362045 -0.2124367
vt -0.1974983 0.255844
vt -0.05314533 0.255844
vt -0.2362045 0.255844
vt 0.04047177 0.255844
vt 0.2362045 0.411688
vt 0.2362045 0.255844
vt -0.04047177 0.255844
vt -0.04047177 0.411688
vt 0.2269367 0.411688
vt 0.2269367 0.255844
vt 0.02519357 0.411688
vt 0.1335515 0.255844
vt 0.08932135 0.255844
vt 0.02519357 0.255844
vt 0.04688749 -0.1712839
vt 0.199349 -0.1096854
vt 0.05340094 -0.2124082
vt 0.2551436 -0.194758
vt 0.2305639 -0.03956764
vt 0.1746008 -0.04843132
vt -0.07117053 0.411688
vt -0.07117053 0.255844
vt -0.3448155 0.411688
vt -0.1712839 0.255844
vt -0.2124082 0.255844
vt -0.3448155 0.255844
vt 0.0310311 0.07117053
vt 0.07437221 0.3448155
vt 0.2305639 0.03956764
vt 0.273905 0.3132126
vt -0.07437221 0.255844
vt -0.273905 0.255844
vt -0.07437221 0.411688
vt -0.273905 0.411688
vt 0.03956764 0.255844
vt 0.03956764 0.411688
vt 0.194758 0.255844
vt 0.3132126 0.411688
vt 0.3132126 0.255844
vt 0.2305639 0.255844
vt 0.1746008 0.255844
vt 0.2305639 0.411688
vt 0.0310311 0.411688
vt 0.0310311 0.255844
vt 0.2551436 0.194758
vt 0.2654603 0.1938554
vt 0.2830675 0.3951066
vt 0.007065821 0.4192536
vt 0.05340094 0.2124082
vt -0.01054138 0.2180024
vt -0.2180024 0.255844
vt -0.2180024 0.1
vt -0.4192536 0.255844
vt -0.4192536 0.1
vt -0.01054138 -0.2180024
vt 0.2654603 -0.1938554
vt 0.007065821 -0.4192536
vt 0.2830675 -0.3951066
vt 0.1938554 0.1
vt 0.1938554 0.255844
vt 0.3951066 0.1
vt 0.3951066 0.255844
vt -0.007065821 0.1
vt -0.2830675 0.1
vt -0.007065821 0.255844
vt -0.2830675 0.255844
vt 0.2654603 0.1
vt -0.01054138 0.1
vt 0.2654603 0.255844
vt 0.2551436 0.255844
vt 0.05340094 0.255844
vt -0.01054138 0.255844
vt -0.1342017 0.1
vt -0.263668 0.1
vt -0.1342017 0.2153246
vt -0.263668 0.2153246
vt 0.1595358 0.2153246
vt 0.1595358 0.1
vt -0.01801801 0.2153246
vt -0.01801801 0.1
vt 0.3661787 0.1
vt 0.2367124 0.1
vt 0.3661787 0.2153246
vt 0.2367124 0.2153246
vt -0.3661787 -0.01801801
vt -0.263668 0.1595358
vt -0.2367124 -0.09276541
vt -0.1342017 0.08478837
vt -0.08478837 0.1
vt -0.08478837 0.2153246
vt 0.09276541 0.1
vt 0.09276541 0.2153246
vt -0.3661787 0.01801801
vt -0.2367124 0.09276541
vt -0.263668 -0.1595358
vt -0.1342017 -0.08478837
vt -0.09174762 -0.07151844
vt -0.04768389 -0.08932135
vt 0.01203937 0.1853634
vt 0.1490921 -0.01470484
vt 0.1746008 0.04843132
vt 0.04688749 0.1712839
vt 0.09556206 0.1
vt -0.09174762 0.1
vt 0.09556206 0.255844
vt -0.09174762 0.255844
vt 0.04768389 0.255844
vt -0.09556206 0.255844
vt 0.09174762 0.255844
vt -0.01203937 0.1
vt -0.199349 0.1
vt -0.01203937 0.255844
vt -0.199349 0.255844
vt -0.04688749 0.255844
vt -0.09174762 0.07151844
vt 0.09556206 0.1471965
vt 0.01203937 -0.1853634
vt -0.1471965 0.1
vt -0.1471965 0.255844
vt 0.1096854 0.1
vt -0.01470484 0.255844
vt 0.04843132 0.255844
vt 0.1096854 0.255844
vt 0.07151844 0.255844
vt 0.07151844 0.1
vt -0.1853634 0.255844
vt -0.1853634 0.1
vt 0.2362579 0.1
vt 0.04034975 0.1
vt 0.2362579 0.255844
vt 0.04034975 0.255844
vt 0.04536588 0.255844
vt -0.2362579 -0.3244435
vt -0.04536588 -0.1335515
vt -0.09340822 -0.4672932
vt 0.1025 -0.2713851
vt 0.05314533 -0.2220304
vt -0.2362579 0.3244435
vt -0.09340822 0.4672932
vt -0.04034975 0.1285354
vt 0.1025 0.2713851
vt -0.09340822 0.255844
vt -0.09340822 0.1
vt -0.2362579 0.255844
vt -0.2362579 0.1
vt 0.1025 0.1
vt 0.1025 0.255844
vt -0.1025 0.1
vt -0.1025 0.255844
vt -0.2220304 0.255844
vt -0.1285354 0.1
vt -0.2713851 0.255844
vt 0.1974983 -0.2144652
vt 0.2262812 -0.3218845
vt 0.4214175 -0.2695979
vt 0.3497102 -0.001982327
vt 0.2268997 -0.03488931
vt -0.1545738 0.1
vt -0.3497102 0.1
vt -0.1545738 0.255844
vt -0.3497102 0.255844
vt -0.2268997 0.255844
vt 0.1545738 0.05426895
vt 0.2262812 0.3218845
vt 0.3497102 0.001982327
vt 0.4214175 0.2695979
vt 0.3218845 0.255844
vt 0.3218845 0.1
vt 0.2144652 0.255844
vt 0.05426895 0.1
vt 0.05426895 0.255844
vt 0.4214175 0.1
vt 0.2262812 0.1
vt 0.4214175 0.255844
vt 0.2262812 0.255844
vt -0.2695979 0.1
vt -0.2695979 0.255844
vt -0.001982327 0.1
vt -0.001982327 0.255844
vt 0.1490921 0.01470484
vt 0.2256316 0.01069358
vt 0.2268997 0.03488931
vt 0.1974983 0.2144652
vt 0.05314533 0.2220304
vt -0.04768389 0.08932135
vt -0.04536588 0.1335515

usemtl stone
f 3/3/1 2/2/1 1/1/1
f 2/2/1 3/3/1 4/4/1
f 6/7/2 1/6/2 5/5/2
f 1/6/2 6/7/2 3/8/2
f 7/11/3 6/10/3 5/9/3
f 6/10/3 7/11/3 8/12/3
f 4/15/4 7/14/4 2/13/4
f 7/14/4 4/15/4 8/16/4
f 6/19/5 4/18/5 3/17/5
f 4/18/5 6/19/5 8/20/5
f 7/23/6 1/22/6 2/21/6
f 1/22/6 7/23/6 5/24/6
f 11/27/3 10/26/3 9/25/3
f 10/26/7 11/27/7 12/28/7
f 10/26/7 12/28/7 13/29/7
f 16/32/10 15/31/9 14/30/8
f 15/31/9 16/32/10 13/33/11
f 13/33/11 16/32/10 10/34/12
f 17/37/3 13/36/3 12/35/3
f 13/36/3 17/37/3 15/38/3
f 14/41/3 19/40/3 18/39/3
f 19/40/3 14/41/3 20/42/3
f 20/45/13 14/44/13 15/43/13
f 20/45/13 15/43/13 17/46/13
f 12/49/14 20/48/14 17/47/14
f 20/48/14 12/49/14 21/50/14
f 21/50/14 12/49/14 22/51/15
f 22/51/15 12/49/14 11/52/16
f 25/55/1 24/54/1 23/53/1
f 24/54/1 25/55/1 26/56/1
f 24/54/1 26/56/1 27/57/1
f 27/57/1 28/58/1 24/54/1
f 31/61/18 30/60/17 29/59/17
f 30/60/17 31/61/18 23/62/19
f 23/62/19 31/61/18 25/63/20
f 25/63/20 31/61/18 32/64/21
f 33/67/3 31/66/3 29/65/3
f 31/66/3 33/67/3 34/68/3
f 31/71/22 35/70/22 32/69/22
f 35/70/22 31/71/22 34/72/22
f 26/75/25 33/74/24 27/73/23
f 33/74/24 26/75/25 34/76/26
f 34/76/26 26/75/25 35/77/26
f 33/80/27 28/79/27 27/78/27
f 29/81/27 28/79/27 33/80/27
f 28/79/27 29/81/27 30/82/27
f 36/84/3 35/68/3 26/83/3
f 35/68/3 36/84/3 37/85/3
f 37/85/3 32/66/3 35/68/3
f 38/86/3 32/66/3 37/85/3
f 38/86/3 25/87/3 32/66/3
f 25/87/3 38/86/3 39/88/3
f 38/91/28 40/90/28 39/89/28
f 40/90/28 38/91/28 41/92/28
f 41/95/1 42/94/1 40/93/1
f 42/94/1 41/95/1 43/96/1
f 43/99/29 36/98/29 42/97/29
f 36/98/29 43/99/29 37/100/29
f 38/103/30 43/102/30 41/101/30
f 43/102/30 38/103/30 37/104/30
f 36/107/33 40/106/32 42/105/31
f 40/106/32 36/107/33 26/108/34
f 25/109/35 40/106/32 26/108/34
f 40/106/32 25/109/35 39/110/36
f 46/113/37 45/112/37 44/111/37
f 45/112/37 46/113/37 47/114/37
f 48/117/38 45/116/38 47/115/38
f 45/116/38 48/117/38 49/118/38
f 48/121/39 50/120/39 49/119/39
f 50/120/39 48/121/39 51/122/39
f 50/125/1 45/124/1 49/123/1
f 45/124/1 50/125/1 44/126/1
f 50/129/40 46/128/40 44/127/40
f 46/128/40 50/129/40 51/130/40
f 47/133/3 51/132/3 48/131/3
f 51/132/3 47/133/3 46/134/3
f 22/136/3 11/35/3 52/135/3
f 11/35/3 53/137/3 52/135/3
f 53/137/3 11/35/3 30/65/3
f 30/65/3 11/35/3 9/138/3
f 30/65/3 9/138/3 28/139/3
f 23/140/3 53/137/3 30/65/3
f 56/143/41 55/142/41 54/141/41
f 55/142/41 56/143/41 52/144/41
f 52/147/3 56/146/3 22/145/3
f 53/150/42 58/149/42 57/148/42
f 58/149/42 53/150/42 24/151/42
f 24/151/3 53/150/3 23/152/3
f 57/155/1 54/154/1 55/153/1
f 54/154/1 57/155/1 58/54/1
f 58/158/43 56/157/43 54/156/43
f 56/157/43 58/158/43 9/159/44
f 9/159/44 58/158/43 28/160/44
f 28/160/44 58/158/43 24/161/43
f 53/164/45 55/163/45 52/162/45
f 55/163/45 53/164/45 57/165/45
f 61/168/46 60/167/46 59/166/46
f 60/167/46 61/168/46 62/169/46
f 62/169/3 61/168/3 21/170/3
f 63/173/3 21/172/3 61/171/3
f 21/172/3 63/173/3 20/37/3
f 20/37/3 63/173/3 64/174/3
f 20/37/3 64/174/3 19/175/3
f 60/178/1 65/177/1 59/176/1
f 65/177/1 60/178/1 66/179/1
f 61/182/47 65/181/47 63/180/47
f 65/181/47 61/182/47 59/183/47
f 64/185/48 65/181/48 66/184/48
f 65/181/48 64/185/48 63/180/48
f 60/167/51 64/187/50 66/186/49
f 64/190/50 60/189/51 19/188/50
f 19/40/50 60/167/51 62/169/52
f 67/192/3 14/38/3 18/191/3
f 14/38/3 67/192/3 68/193/3
f 14/38/3 68/193/3 69/194/3
f 69/194/3 16/195/3 14/38/3
f 72/198/53 71/197/53 70/196/53
f 71/197/53 72/198/53 69/199/53
f 69/199/3 72/198/3 16/200/3
f 71/203/1 73/202/1 70/201/1
f 73/202/1 71/203/1 74/204/1
f 18/207/55 73/206/54 67/205/54
f 73/206/54 18/207/55 70/208/54
f 70/208/54 18/207/55 72/209/54
f 68/212/56 73/211/56 74/210/56
f 73/211/56 68/212/56 67/213/56
f 71/216/57 68/215/57 74/214/57
f 68/215/57 71/216/57 69/217/57
f 10/219/1 72/201/1 9/218/1
f 72/201/1 10/219/1 16/220/1
f 72/201/1 56/154/1 9/218/1
f 18/221/1 56/154/1 72/201/1
f 19/222/1 56/154/1 18/221/1
f 62/178/1 56/154/1 19/222/1
f 62/178/1 22/223/1 56/154/1
f 22/223/1 62/178/1 21/224/1
g floor_square_1

v 0.5625 0 0.5
v 0.5625 0 -0.5
v 0.5 0 0.5625
v 0.5 0 -0.5625
v -0.5 0 0.5625
v -0.5 0 -0.5625
v -0.5625 0 0.5
v -0.5625 0 -0.5
v 0.5625 0.0975 -0.5
v 0.5625 0.0975 0.5
v 0.5 0.0975 -0.5625
v 0.5 0.0975 0.5625
v -0.5 0.0975 -0.5625
v -0.5 0.0975 0.5625
v -0.5625 0.0975 -0.5
v -0.5625 0.0975 0.5
vn 0 -1.5 0
vn 0 1.5 0
vn 0 0 1
vn 1 0 0
vn 0.7071068 0 -0.7071068
vn -0.7071068 0 -0.7071068
vn -1 0 0
vn 0 0 -1
vt -0.5625 -0.5
vt -0.5625 0.5
vt -0.5 -0.5625
vt -0.5 0.5625
vt 0.5 -0.5625
vt 0.5 0.5625
vt 0.5625 -0.5
vt 0.5625 0.5
vt 0.5 0
vt -0.5 0
vt 0.5 0.0975
vt -0.5 0.0975
vt 0.5625 0.0975
vt 0.5625 0
vt -0.5625 0
vt -0.5625 0.0975

usemtl stone
f 77/227/58 76/226/58 75/225/58
f 76/226/58 77/227/58 78/228/58
f 78/228/58 77/227/58 79/229/58
f 78/228/58 79/229/58 80/230/58
f 80/230/58 79/229/58 81/231/58
f 80/230/58 81/231/58 82/232/58
f 85/227/59 84/226/59 83/225/59
f 84/226/59 85/227/59 86/228/59
f 86/228/59 85/227/59 87/229/59
f 86/228/59 87/229/59 88/230/59
f 88/230/59 87/229/59 89/231/59
f 88/230/59 89/231/59 90/232/59
f 86/235/60 79/234/60 77/233/60
f 79/234/60 86/235/60 88/236/60
f 86/235/46 75/238/46 84/237/46
f 75/238/46 86/235/46 77/233/46
f 84/236/61 76/233/61 83/235/61
f 76/233/61 84/236/61 75/234/61
f 85/236/62 76/239/62 78/234/62
f 76/239/62 85/236/62 83/240/62
f 82/238/63 87/235/63 80/233/63
f 87/235/63 82/238/63 89/237/63
f 81/233/64 89/236/64 82/234/64
f 89/236/64 81/233/64 90/235/64
f 88/236/52 81/239/52 79/234/52
f 81/239/52 88/236/52 90/240/52
f 87/235/65 78/234/65 80/233/65
f 78/234/65 87/235/65 85/236/65
