# Made using Asset Forge (www.assetforge.io) version 1.3 

mtllib Level4.mtl 

g block_35

v 0.5 0 0.5
v 0.5 0 -0.5
v -0.5 0 0.5
v -0.5 0 -0.5
v 0.5 0.15 -0.5
v 0.5 0.15 0.5
v -0.5 0.15 0.5
v -0.5 0.15 -0.5
v 0.5 1 -0.5
v 0.5 1 0.5
v -0.5 1 -0.5
v -0.5 1 0.5
vn 0 -1 0
vn 1 0 0
vn 0 0 1
vn -1 0 0
vn 0 0 -1
vn 0 1 0
vt -0.5 -0.5
vt -0.5 0.5
vt 0.5 -0.5
vt 0.5 0.5
vt 0.5 0.15
vt 0.5 0
vt -0.5 0.15
vt -0.5 0
vt 0.5 1
vt -0.5 1

usemtl border

f 3/3/1 2/2/1 1/1/1
f 2/2/1 3/3/1 4/4/1
f 6/7/2 2/6/2 5/5/2
f 2/6/2 6/7/2 1/8/2
f 6/5/3 3/8/3 1/6/3
f 3/8/3 6/5/3 7/7/3
f 3/6/4 8/7/4 4/8/4
f 8/7/4 3/6/4 7/5/4
f 8/5/5 2/8/5 4/6/5
f 2/8/5 8/5/5 5/7/5

usemtl bricks

f 11/3/6 10/2/6 9/1/6
f 10/2/6 11/3/6 12/4/6
f 10/10/2 5/5/2 9/9/2
f 5/5/2 10/10/2 6/7/2
f 11/9/5 5/7/5 8/5/5
f 5/7/5 11/9/5 9/10/5
f 7/5/4 11/10/4 8/7/4
f 11/10/4 7/5/4 12/9/4
f 10/9/3 7/7/3 6/5/3
f 7/7/3 10/9/3 12/10/3
g roof_36

v -5.960464E-08 1.38 0.5000001
v 0.5 1 0.5000001
v -0.5000001 1 0.4999999
v -0.5 1 -0.5000001
v 0.5000001 1 -0.4999999
v 5.960464E-08 1.38 -0.5000001
v 0.5398081 0.9697458 0.5500001
v 0.5700623 1.009554 0.5500001
v 0.5398082 0.9697458 -0.5500001
v 0.5700624 1.009554 -0.55
v 5.960464E-08 1.442801 -0.5500001
v 5.960464E-08 1.38 -0.5500001
v -0.5700623 1.009554 -0.5500001
v -0.5398081 0.9697458 -0.5500001
v -0.5398082 0.9697458 0.5500001
v -0.5700624 1.009554 0.55
v -5.960464E-08 1.38 0.5500001
v -5.960464E-08 1.442801 0.5500001
vn -1.192093E-07 0 1
vn 1.192093E-07 0 -1
vn 0.7961619 -0.6050839 1.192093E-07
vn -0.7961619 -0.6050839 -1.192093E-07
vn 0.6050834 -0.7961622 5.960464E-08
vn 0.6050834 -0.7961621 5.960464E-08
vn 0.6050835 -0.7961621 5.960464E-08
vn 0.6050833 -0.7961622 5.960464E-08
vn -0.6050833 -0.7961622 -5.960464E-08
vn -0.6050834 -0.7961621 -5.960464E-08
vn -0.6050834 -0.7961622 -5.960464E-08
vn -0.6050835 -0.7961621 -5.960464E-08
vn -0.6050833 0.7961622 -5.960464E-08
vn 0.6050833 0.7961622 5.960464E-08
vt -5.960464E-08 1.38
vt -0.5000001 1
vt 0.5000001 -0.5
vt -0.5 -0.5000001
vt 0.5 0.5000001
vt -0.5000001 0.5
vt -0.5500001 0.9697458
vt -0.5500001 1.009554
vt 0.55 0.9697458
vt 0.55 1.009554
vt -0.5700624 1.009554
vt -6.556511E-08 1.442801
vt -0.5398082 0.9697458
vt -6.556511E-08 1.38
vt 0.5700623 1.009554
vt 0.5398081 0.9697458
vt 6.556511E-08 -0.5500001
vt 0.5398082 -0.55
vt 0.5398081 0.5500001
vt -6.556511E-08 0.5500001
vt -5.960464E-08 0.5000001
vt 5.960464E-08 -0.5000001
vt -0.5398082 0.55
vt -0.5398081 -0.5500001
vt 6.556511E-08 0.5500001
vt 0.5700624 0.55
vt -6.556511E-08 -0.5500001
vt 0.5700623 -0.5500001
vt -0.5700623 0.5500001
vt -0.5700624 -0.55

usemtl bricks

f 15/12/7 14/9/7 13/11/7
f 16/15/1 14/14/1 15/13/1
f 14/14/1 16/15/1 17/16/1
f 16/9/8 18/11/8 17/12/8

usemtl roofJade

f 21/19/9 20/18/9 19/17/9
f 20/18/9 21/19/9 22/20/9
f 21/23/8 23/22/8 22/21/8
f 23/22/8 21/23/8 24/24/8
f 23/22/8 24/24/8 25/25/8
f 25/25/8 24/24/8 26/26/8
f 28/20/10 26/17/10 27/19/10
f 26/17/10 28/20/10 25/18/10
f 27/28/13 15/13/12 29/27/11
f 15/13/12 27/28/13 26/29/13
f 15/13/12 26/29/13 16/15/12
f 16/15/12 26/29/13 24/30/11
f 24/30/11 18/31/14 16/15/12
f 13/32/14 29/27/11 15/13/12
f 24/30/17 17/16/16 18/31/15
f 21/33/18 17/16/16 24/30/17
f 21/33/18 14/14/18 17/16/16
f 19/34/16 14/14/18 21/33/18
f 19/34/16 13/32/17 14/14/18
f 13/32/17 19/34/16 29/27/17
f 30/22/7 19/26/7 20/25/7
f 19/26/7 30/22/7 29/24/7
f 29/24/7 30/22/7 28/21/7
f 29/24/7 28/21/7 27/23/7
f 23/37/19 28/36/19 30/35/19
f 28/36/19 23/37/19 25/38/19
f 22/40/20 30/35/20 20/39/20
f 30/35/20 22/40/20 23/37/20
g door_square_37

v 0.1350256 0.04723082 -0.4374999
v -0.1350257 0.04723082 -0.4374999
v 0.1350256 0.04723082 -0.4674999
v -0.1350257 0.04723082 -0.4674999
v -0.1350257 0.707282 -0.5325
v 0.1350256 0.707282 -0.5324999
v -0.1350257 0.707282 -0.5624999
v 0.1350256 0.707282 -0.5624999
v 0.1822564 0.7545128 -0.5624999
v 0.1350256 0.04723082 -0.5624999
v 0.1822564 0 -0.5624999
v -0.1822565 0 -0.5625
v -0.1350257 0.04723082 -0.5624999
v -0.1822565 0.7545128 -0.5625
v 0.1822564 0.7545128 -0.4374999
v -0.1822565 0.7545128 -0.4375
v 0.1822564 0 -0.4374999
v 0.1350256 0.707282 -0.4374999
v -0.1350257 0.707282 -0.4374999
v -0.1822565 0 -0.4375
v -0.1350257 0.707282 -0.4674999
v -0.1350257 0.04723082 -0.5325
v 0.1350256 0.04723082 -0.5324999
v 0.1350256 0.707282 -0.4674999
v 0.05983867 0.6320952 -0.4674999
v -0.05983879 0.6320952 -0.4674999
v -0.05983879 0.4996741 -0.4674999
v 0.05983867 0.4996741 -0.4674999
v 0.05983867 0.4996741 -0.5324999
v -0.05983879 0.4996741 -0.5324999
v 0.05983867 0.6320952 -0.5324999
v -0.05983879 0.6320952 -0.5324999
vn 1 0 1.192093E-07
vn -1 0 -1.192093E-07
vt -0.1350256 -0.4374999
vt 0.1350257 -0.4374999
vt -0.1350256 -0.4674999
vt 0.1350257 -0.4674999
vt 0.1350257 0.5325
vt -0.1350256 0.5324999
vt 0.1350257 0.5624999
vt -0.1350256 0.5624999
vt -0.1822564 0.7545128
vt -0.1350256 0.04723082
vt -0.1822564 0
vt 0.1822565 0
vt 0.1350257 0.04723082
vt 0.1350257 0.707282
vt -0.1350256 0.707282
vt 0.1822565 0.7545128
vt -0.1822564 -0.4374999
vt 0.1822565 -0.4374999
vt -0.1822564 -0.5624999
vt 0.1822565 -0.5624999
vt 0.1822564 0
vt 0.1350256 0.707282
vt 0.1822564 0.7545128
vt -0.1822565 0.7545128
vt -0.1350257 0.707282
vt -0.1350257 0.04723082
vt 0.1350256 0.04723082
vt -0.1822565 0
vt 0.5624999 0
vt 0.4374999 0
vt 0.5624999 0.7545128
vt 0.4374999 0.7545128
vt 0.1822565 0.4374999
vt -0.1822564 0.4374999
vt 0.1822565 0.5624999
vt -0.1822564 0.5624999
vt -0.4374999 0
vt -0.5624999 0
vt -0.4374999 0.7545128
vt -0.5624999 0.7545128
vt 0.4674999 0.04723082
vt 0.4374999 0.04723082
vt 0.4674999 0.707282
vt 0.4374999 0.707282
vt 0.5624999 0.04723082
vt 0.5325 0.04723082
vt 0.5624999 0.707282
vt 0.5325 0.707282
vt -0.1350256 -0.5324999
vt 0.1350257 -0.5325
vt -0.1350256 -0.5624999
vt 0.1350257 -0.5624999
vt -0.5324999 0.04723082
vt -0.5624999 0.04723082
vt -0.5324999 0.707282
vt -0.5624999 0.707282
vt 0.1350257 0.4374999
vt -0.1350256 0.4374999
vt 0.1350257 0.4674999
vt -0.1350256 0.4674999
vt -0.4374999 0.04723082
vt -0.4674999 0.04723082
vt -0.4374999 0.707282
vt -0.4674999 0.707282
vt 0.05983867 0.6320952
vt -0.1350257 0.707282
vt -0.05983879 0.6320952
vt -0.05983879 0.4996741
vt 0.05983867 0.4996741
vt -0.1350257 0.04723082
vt -0.05983867 -0.4674999
vt 0.05983879 -0.4674999
vt -0.05983867 -0.5324999
vt 0.05983879 -0.5325
vt -0.4674999 0.4996741
vt -0.5324999 0.4996741
vt -0.4674999 0.6320952
vt -0.5324999 0.6320952
vt -0.1350256 0.707282
vt -0.05983867 0.4996741
vt -0.1350256 0.04723082
vt 0.05983879 0.4996741
vt 0.05983879 0.6320952
vt -0.05983867 0.6320952
vt 0.5325 0.4996741
vt 0.4674999 0.4996741
vt 0.5325 0.6320952
vt 0.4674999 0.6320952
vt 0.05983879 0.4674999
vt -0.05983867 0.4674999
vt 0.05983879 0.5325
vt -0.05983867 0.5324999

usemtl lightStone

f 33/43/6 32/42/6 31/41/6
f 32/42/6 33/43/6 34/44/6
f 37/47/1 36/46/1 35/45/1
f 36/46/1 37/47/1 38/48/1
f 41/51/8 40/50/8 39/49/8
f 40/50/8 41/51/8 42/52/8
f 40/50/8 42/52/8 43/53/8
f 43/53/8 42/52/8 37/54/8
f 38/55/8 39/49/8 40/50/8
f 39/49/8 38/55/8 44/56/8
f 44/56/8 38/55/8 37/54/8
f 44/56/8 37/54/8 42/52/8
f 39/59/6 46/58/6 45/57/6
f 46/58/6 39/59/6 44/60/6
f 45/63/7 48/62/7 47/61/7
f 48/62/7 45/63/7 46/64/7
f 48/62/7 46/64/7 49/65/7
f 49/65/7 46/64/7 32/66/7
f 31/67/7 47/61/7 48/62/7
f 47/61/7 31/67/7 50/68/7
f 50/68/7 31/67/7 32/66/7
f 50/68/7 32/66/7 46/64/7
f 39/71/21 47/70/21 41/69/21
f 47/70/21 39/71/21 45/72/21
f 42/75/1 47/74/1 50/73/1
f 47/74/1 42/75/1 41/76/1
f 46/79/22 42/78/22 50/77/22
f 42/78/22 46/79/22 44/80/22
f 51/83/21 32/82/21 34/81/21
f 32/82/21 51/83/21 49/84/21
f 37/87/21 52/86/21 43/85/21
f 52/86/21 37/87/21 35/88/21
f 40/91/6 52/90/6 53/89/6
f 52/90/6 40/91/6 43/92/6
f 36/95/22 40/94/22 53/93/22
f 40/94/22 36/95/22 38/96/22
f 51/99/1 48/98/1 49/97/1
f 48/98/1 51/99/1 54/100/1
f 48/103/22 33/102/22 31/101/22
f 33/102/22 48/103/22 54/104/22

usemtl wood

f 54/62/7 55/105/7 33/67/7
f 55/105/7 54/62/7 51/106/7
f 55/105/7 51/106/7 56/107/7
f 56/107/7 51/106/7 57/108/7
f 58/109/7 33/67/7 55/105/7
f 33/67/7 58/109/7 34/110/7
f 34/110/7 58/109/7 57/108/7
f 34/110/7 57/108/7 51/106/7
f 59/113/6 57/112/6 58/111/6
f 57/112/6 59/113/6 60/114/6
f 55/117/22 59/116/22 58/115/22
f 59/116/22 55/117/22 61/118/22
f 53/121/8 59/120/8 36/119/8
f 59/120/8 53/121/8 52/53/8
f 59/120/8 52/53/8 60/122/8
f 60/122/8 52/53/8 62/123/8
f 61/124/8 36/119/8 59/120/8
f 36/119/8 61/124/8 35/54/8
f 35/54/8 61/124/8 62/123/8
f 35/54/8 62/123/8 52/53/8
f 62/127/21 57/126/21 60/125/21
f 57/126/21 62/127/21 56/128/21
f 62/131/1 55/130/1 56/129/1
f 55/130/1 62/131/1 61/132/1
